<svg width="40" height="40" fill="none" xmlns="http://www.w3.org/2000/svg"><g clip-path="url(#clip0_0_17)" fill="#000"><path d="M27.498 0c-2.132.147-4.625 1.512-6.077 3.29-1.325 1.612-2.415 4.007-1.99 6.335 2.33.072 4.737-1.325 6.132-3.133C26.868 4.81 27.856 2.43 27.498 0z"/><path d="M35.926 13.685C33.878 11.118 31 9.628 28.283 9.628c-3.587 0-5.105 1.717-7.597 1.717-2.57 0-4.523-1.712-7.625-1.712-3.048 0-6.293 1.862-8.35 5.047C1.818 19.165 2.313 27.598 7 34.78c1.677 2.57 3.917 5.46 6.847 5.485 2.608.025 3.343-1.672 6.875-1.69 3.533-.02 4.203 1.712 6.805 1.685 2.933-.023 5.295-3.225 6.973-5.795 1.202-1.842 1.65-2.77 2.582-4.85-6.782-2.582-7.87-12.227-1.157-15.93z"/></g><defs><clipPath id="clip0_0_17"><path fill="#fff" d="M0 0h40v40H0z"/></clipPath></defs></svg>