<svg width="48" height="48" fill="none" xmlns="http://www.w3.org/2000/svg"><path d="M23.826 25.864h.319c2.912-.05 5.267-1.074 7.007-3.032 3.827-4.314 3.19-11.71 3.121-12.415-.248-5.298-2.753-7.833-4.82-9.015C27.91.517 26.112.04 24.103 0h-.169c-1.103 0-3.27.179-5.347 1.362-2.088 1.183-4.632 3.717-4.88 9.055-.07.706-.707 8.101 3.12 12.415 1.73 1.958 4.086 2.982 6.998 3.032zm-7.465-15.198c0-.03.01-.06.01-.08.328-7.127 5.388-7.892 7.555-7.892h.119c2.684.06 7.246 1.153 7.554 7.892 0 .03 0 .06.01.08.01.07.706 6.828-2.455 10.387-1.253 1.411-2.922 2.107-5.12 2.127h-.099c-2.186-.02-3.866-.716-5.109-2.127-3.15-3.539-2.475-10.328-2.465-10.387z" fill="#fff"/><path d="M44.412 38.13v-.03c0-.08-.01-.16-.01-.249-.06-1.968-.19-6.57-4.503-8.041l-.1-.03c-4.482-1.143-8.21-3.727-8.25-3.757a1.34 1.34 0 00-1.868.328 1.34 1.34 0 00.328 1.869c.169.119 4.125 2.872 9.075 4.145 2.316.825 2.574 3.3 2.644 5.566 0 .09 0 .169.01.248.01.895-.05 2.277-.209 3.072-1.61.914-7.922 4.075-17.524 4.075-9.562 0-15.914-3.17-17.534-4.085-.16-.795-.229-2.177-.209-3.072 0-.08.01-.159.01-.248.07-2.266.328-4.742 2.644-5.566 4.95-1.273 8.906-4.036 9.075-4.145a1.34 1.34 0 10-1.54-2.197c-.04.03-3.748 2.614-8.25 3.757-.04.01-.07.02-.1.03-4.314 1.481-4.443 6.083-4.503 8.041 0 .09 0 .17-.01.249v.03c-.01.517-.02 3.17.507 4.503.1.258.279.477.517.626C4.91 43.447 12.057 48 24.015 48c11.958 0 19.105-4.562 19.403-4.751a1.33 1.33 0 00.517-.627c.497-1.322.487-3.975.477-4.492z" fill="#fff"/></svg>