<svg width="48" height="48" fill="none" xmlns="http://www.w3.org/2000/svg"><g clip-path="url(#clip0_0_121)" fill="#1EC28B" fill-opacity=".5"><path d="M19.083 32.345l6.63-19.888a1.406 1.406 0 00-2.669-.889l-6.629 19.888a1.406 1.406 0 002.668.889zm9.936-6.17a4.223 4.223 0 004.218-4.219 4.223 4.223 0 00-4.218-4.218 4.223 4.223 0 00-4.219 4.218 4.224 4.224 0 004.219 4.22zm0-5.625a1.408 1.408 0 010 2.813 1.408 1.408 0 010-2.813zm-15.91-2.812a4.223 4.223 0 00-4.219 4.218 4.224 4.224 0 004.219 4.22 4.223 4.223 0 004.219-4.22 4.223 4.223 0 00-4.22-4.218zm0 5.625a1.408 1.408 0 010-2.813 1.408 1.408 0 010 2.813z"/><path d="M47.719 17.438l-4.904-6.539.192-1.339a1.406 1.406 0 00-.398-1.193l-2.983-2.983L42.609 2.4a1.406 1.406 0 00-1.99-1.989l-2.982 2.983L34.654.412A1.408 1.408 0 0033.46.014L19.54 2.003a1.406 1.406 0 00-.796.398L1.508 19.637a5.162 5.162 0 000 7.292l14.584 14.584c.298.298.625.551.97.76v.571A5.162 5.162 0 0022.22 48h20.625A5.162 5.162 0 0048 42.844V18.281c0-.304-.099-.6-.281-.843zM3.497 24.94a2.346 2.346 0 010-3.315L20.4 4.721l12.761-1.823 2.486 2.486-1.989 1.989-.994-.995a1.406 1.406 0 00-1.989 1.989l3.978 3.978a1.402 1.402 0 001.988 0c.55-.55.55-1.44 0-1.99l-.994-.994 1.989-1.988 2.486 2.486-1.823 12.76-16.904 16.905a2.328 2.328 0 01-1.658.686 2.328 2.328 0 01-1.657-.686L3.497 24.94zm41.69 17.904a2.346 2.346 0 01-2.343 2.344H22.219a2.346 2.346 0 01-2.337-2.171 5.136 5.136 0 003.502-1.504L40.62 24.277c.215-.215.355-.494.398-.796l1.235-8.644 2.935 3.913v24.094z"/></g><defs><clipPath id="clip0_0_121"><path fill="#fff" d="M0 0h48v48H0z"/></clipPath></defs></svg>