<svg width="48" height="48" fill="none" xmlns="http://www.w3.org/2000/svg"><path d="M37.9 29.57c-.942-1.964-4.312-4.69-7.568-7.324-1.816-1.468-3.532-2.856-4.626-3.95a1 1 0 00-1.046-.234c-.674.244-1.09.432-1.418.578-.5.224-.668.3-1.342.368a1 1 0 00-.732.438c-1.414 2.113-2.878 1.933-3.856 1.606-.312-.104-.368-.238-.398-.366-.21-.878.844-2.922 2.21-4.288 3.25-3.252 4.926-4.066 8.466-2.484a116.926 116.926 0 008.08 3.216.999.999 0 001.274-.616 1.002 1.002 0 00-.616-1.274c-.04-.014-3.984-1.392-7.92-3.155-4.586-2.05-7.102-.7-10.696 2.897-1.368 1.368-3.226 4.136-2.746 6.166.206.864.814 1.504 1.718 1.802 2.266.748 4.334.032 5.874-2.012.636-.098.982-.242 1.502-.476.188-.084.408-.182.7-.3 1.144 1.074 2.688 2.324 4.314 3.638 2.94 2.378 6.274 5.074 7.024 6.634.37.77-.028 1.272-.298 1.502-.396.34-.938.448-1.232.242a1.001 1.001 0 00-1.562.93c.068.636-.514 1-.766 1.126-.64.324-1.308.268-1.558.036a1 1 0 00-1.678.638c-.06.655-.546 1.285-1.18 1.532-.306.116-.75.186-1.148-.178a1.012 1.012 0 00-.914-.233.998.998 0 00-.702.63c-.038.1-.124.34-1.06.34-.666 0-1.864-.45-2.45-.838-.702-.462-5.104-3.745-8.906-6.93-.534-.45-1.458-1.414-2.274-2.266-.724-.756-1.386-1.442-1.726-1.73a1.001 1.001 0 00-1.292 1.528c.31.263.91.897 1.572 1.587.892.931 1.814 1.895 2.434 2.415 3.724 3.118 8.2 6.484 9.092 7.07C21.186 38.32 22.772 39 24 39c.986 0 1.744-.226 2.27-.668.704.274 1.504.276 2.274-.024a3.939 3.939 0 002.082-1.922c.788.169 1.69.05 2.51-.361.802-.404 1.382-1.022 1.67-1.745.796.042 1.616-.24 2.294-.822 1.148-.981 1.464-2.51.8-3.887z" fill="#1EC28B" fill-opacity=".5"/><path d="M20 13h-9a1 1 0 000 2h9a1 1 0 000-2zm20.83 14.442a.998.998 0 00-1.388-.272l-2.924 1.964a1 1 0 001.116 1.66l2.924-1.964a1 1 0 00.272-1.388zm-6.208 4.772c-.716-.564-3.918-3.842-5.898-5.906a1 1 0 10-1.444 1.384c.514.536 5.048 5.262 6.102 6.094A.996.996 0 0034 34a1 1 0 00.622-1.786zm-3.996 2.006c-1.198-.958-4.208-4.156-4.888-4.896a1.002 1.002 0 00-1.474 1.354c.036.038 3.628 3.916 5.112 5.104a1.005 1.005 0 001.406-.156 1.002 1.002 0 00-.156-1.406zm-3.98 2.014c-1.426-1.202-4.344-4.308-4.914-4.918a1 1 0 10-1.462 1.366c.82.878 3.612 3.838 5.086 5.082a.997.997 0 001.41-.12 1.001 1.001 0 00-.12-1.41z" fill="#1EC28B" fill-opacity=".5"/><path d="M11.688 11.274C9.974 9.65 3.12 9.124 1.06 9.002A1 1 0 000 10v18a1 1 0 001 1h6a.999.999 0 00.95-.69c.146-.448 3.592-11.024 4.046-16.224a.995.995 0 00-.308-.812zM6.27 27H2V11.072c3.214.254 6.682.806 7.942 1.418C9.412 16.87 7.014 24.652 6.27 27zM47 11c-7.852 0-12.208 2.01-12.39 2.094a.995.995 0 00-.534.622c-.08.274-.04.568.11.812 1.236 1.99 5.106 13.042 5.85 15.738A1 1 0 0041 31h6a1 1 0 001-1V12a1 1 0 00-1-1zm-1 18h-4.252C40.8 25.912 38 17.86 36.438 14.532c1.526-.518 4.804-1.408 9.562-1.52V29z" fill="#1EC28B" fill-opacity=".5"/></svg>