<svg width="40" height="40" fill="none" xmlns="http://www.w3.org/2000/svg"><g clip-path="url(#clip0_0_30)"><path d="M23.015 20.004L2.928 39.346a3.418 3.418 0 01-1.49-2.851V3.513A3.418 3.418 0 012.929.66l20.087 19.343z" fill="#2196F3"/><path d="M30.044 13.247l-7.03 6.756L2.929.662c.075-.059.154-.113.236-.163A3.436 3.436 0 016.633.443l23.41 12.804z" fill="#4CAF50"/><path d="M38.562 20.004a3.473 3.473 0 01-1.817 3.087l-6.701 3.669-7.03-6.756 7.03-6.757 6.701 3.669a3.473 3.473 0 011.817 3.088z" fill="#FFC107"/><path d="M30.044 26.76L6.633 39.564c-1.084.6-2.405.58-3.47-.054a2.684 2.684 0 01-.235-.164l20.087-19.342 7.029 6.756z" fill="#F44336"/></g><defs><clipPath id="clip0_0_30"><path fill="#fff" d="M0 0h40v40H0z"/></clipPath></defs></svg>