<svg width="37" height="37" fill="none" xmlns="http://www.w3.org/2000/svg"><g filter="url(#filter0_d_0_241)"><circle cx="18.532" cy="14.468" r="14.468" fill="#fff"/></g><path d="M15.358 20.414v-8.079h-2.696v8.08h2.696zm-1.348-9.183c.94 0 1.525-.62 1.525-1.395-.017-.793-.585-1.396-1.507-1.396-.922 0-1.525.603-1.525 1.396 0 .775.585 1.395 1.49 1.395h.017zm2.84 9.183h2.695v-4.512c0-.241.017-.482.089-.655.195-.482.638-.982 1.383-.982.975 0 1.365.74 1.365 1.827v4.322h2.695v-4.632c0-2.482-1.33-3.637-3.103-3.637-1.454 0-2.092.81-2.447 1.362h.018v-1.172H16.85c.035.758 0 8.08 0 8.08z" fill="#00395F"/><defs><filter id="filter0_d_0_241" x=".064" y="0" width="36.936" height="36.936" filterUnits="userSpaceOnUse" color-interpolation-filters="sRGB"><feFlood flood-opacity="0" result="BackgroundImageFix"/><feColorMatrix in="SourceAlpha" values="0 0 0 0 0 0 0 0 0 0 0 0 0 0 0 0 0 0 127 0" result="hardAlpha"/><feOffset dy="4"/><feGaussianBlur stdDeviation="2"/><feColorMatrix values="0 0 0 0 0.7375 0 0 0 0 0.7375 0 0 0 0 0.7375 0 0 0 0.25 0"/><feBlend in2="BackgroundImageFix" result="effect1_dropShadow_0_241"/><feBlend in="SourceGraphic" in2="effect1_dropShadow_0_241" result="shape"/></filter></defs></svg>