<svg width="37" height="37" fill="none" xmlns="http://www.w3.org/2000/svg"><g filter="url(#filter0_d_0_244)"><circle cx="18.511" cy="14.468" r="14.468" fill="#fff"/></g><path d="M18.703 11.392c-.75 0-1.469.312-2 .868a3.035 3.035 0 00-.827 2.095c0 .785.298 1.539.828 2.094.53.556 1.25.868 2 .868s1.469-.312 1.999-.868c.53-.555.828-1.309.828-2.095 0-.785-.298-1.539-.828-2.094a2.764 2.764 0 00-2-.868zm0 4.887c-.487 0-.954-.203-1.299-.564a1.972 1.972 0 01-.538-1.361c0-.51.194-1 .538-1.361.345-.36.812-.564 1.3-.564.487 0 .954.203 1.298.564.345.361.538.85.538 1.36 0 .511-.193 1-.538 1.362-.344.36-.811.564-1.299.564z" fill="#00395F"/><path d="M21.531 12.577c.625 0 1.131-.53 1.131-1.185 0-.654-.506-1.185-1.131-1.185s-1.131.53-1.131 1.185.506 1.185 1.131 1.185z" fill="#00395F"/><path d="M24.595 10.082a3.345 3.345 0 00-.718-1.152 3.17 3.17 0 00-1.102-.75 4.388 4.388 0 00-1.51-.304c-.665-.03-.876-.04-2.563-.04-1.687 0-1.904 0-2.563.04a4.354 4.354 0 00-1.51.303 3.167 3.167 0 00-1.101.75c-.313.328-.558.72-.718 1.153a4.952 4.952 0 00-.289 1.58c-.03.695-.039.915-.039 2.68 0 1.766 0 1.99.039 2.682.01.54.108 1.074.29 1.58.16.433.404.825.718 1.152.313.328.688.584 1.101.75.482.198.993.308 1.51.326.665.03.876.04 2.563.04 1.687 0 1.904 0 2.564-.04a4.393 4.393 0 001.51-.303 3.175 3.175 0 001.101-.75 3.35 3.35 0 00.718-1.153 4.962 4.962 0 00.29-1.58c.03-.695.038-.915.038-2.68 0-1.766 0-1.99-.039-2.682a4.946 4.946 0 00-.29-1.602zm-.842 6.889a3.778 3.778 0 01-.215 1.22 2.17 2.17 0 01-.466.749 2.058 2.058 0 01-.717.487c-.37.143-.76.22-1.154.225-.656.032-.841.04-2.524.04-1.684 0-1.857 0-2.525-.04a3.294 3.294 0 01-1.153-.225 2.054 2.054 0 01-.72-.486 2.17 2.17 0 01-.468-.75 3.824 3.824 0 01-.215-1.207c-.03-.686-.037-.88-.037-2.64 0-1.762 0-1.942.037-2.642.005-.416.077-.829.215-1.22a2.11 2.11 0 011.188-1.237 3.306 3.306 0 011.153-.224c.657-.031.841-.04 2.525-.04s1.856 0 2.524.04c.395.005.785.08 1.154.224.269.11.513.275.717.488.204.213.362.469.466.75.136.386.209.794.215 1.206.03.687.037.88.037 2.642 0 1.76 0 1.95-.03 2.64h-.007z" fill="#00395F"/><defs><filter id="filter0_d_0_244" x=".043" y="0" width="36.936" height="36.936" filterUnits="userSpaceOnUse" color-interpolation-filters="sRGB"><feFlood flood-opacity="0" result="BackgroundImageFix"/><feColorMatrix in="SourceAlpha" values="0 0 0 0 0 0 0 0 0 0 0 0 0 0 0 0 0 0 127 0" result="hardAlpha"/><feOffset dy="4"/><feGaussianBlur stdDeviation="2"/><feColorMatrix values="0 0 0 0 0.7375 0 0 0 0 0.7375 0 0 0 0 0.7375 0 0 0 0.25 0"/><feBlend in2="BackgroundImageFix" result="effect1_dropShadow_0_244"/><feBlend in="SourceGraphic" in2="effect1_dropShadow_0_244" result="shape"/></filter></defs></svg>