<svg width="37" height="37" fill="none" xmlns="http://www.w3.org/2000/svg"><g filter="url(#filter0_d_0_238)"><circle cx="18.468" cy="14.468" r="14.468" fill="#fff"/></g><path d="M23.722 11.654c.008.115.008.229.008.343 0 3.495-2.593 7.523-7.332 7.523a7.15 7.15 0 01-3.958-1.187c.207.024.407.033.622.033a5.08 5.08 0 003.2-1.13 2.54 2.54 0 01-1.491-.52 2.648 2.648 0 01-.92-1.314 2.677 2.677 0 001.166-.05 2.566 2.566 0 01-1.485-.917 2.686 2.686 0 01-.581-1.677v-.032c.343.196.742.319 1.164.335a2.617 2.617 0 01-.844-.953 2.693 2.693 0 01-.305-1.249c0-.49.128-.94.35-1.333a7.37 7.37 0 002.372 1.962c.915.477 1.918.75 2.943.804a3.077 3.077 0 01-.064-.605c0-.348.067-.692.196-1.012.13-.321.32-.613.559-.858.24-.246.523-.44.836-.574a2.54 2.54 0 012.87.634 5.015 5.015 0 001.635-.638 2.628 2.628 0 01-1.133 1.457 5.062 5.062 0 001.484-.41c-.353.528-.79.99-1.292 1.368z" fill="#00395F"/><defs><filter id="filter0_d_0_238" x="0" y="0" width="36.936" height="36.936" filterUnits="userSpaceOnUse" color-interpolation-filters="sRGB"><feFlood flood-opacity="0" result="BackgroundImageFix"/><feColorMatrix in="SourceAlpha" values="0 0 0 0 0 0 0 0 0 0 0 0 0 0 0 0 0 0 127 0" result="hardAlpha"/><feOffset dy="4"/><feGaussianBlur stdDeviation="2"/><feColorMatrix values="0 0 0 0 0.7375 0 0 0 0 0.7375 0 0 0 0 0.7375 0 0 0 0.25 0"/><feBlend in2="BackgroundImageFix" result="effect1_dropShadow_0_238"/><feBlend in="SourceGraphic" in2="effect1_dropShadow_0_238" result="shape"/></filter></defs></svg>